<svg width="144" height="24" viewBox="0 0 144 24" fill="none" xmlns="http://www.w3.org/2000/svg">
<g clip-path="url(#clip0_1_16)">
<path d="M11.0201 23.9679C8.81392 23.9679 6.88621 23.4752 5.23695 22.49C3.58768 21.4833 2.30254 20.091 1.38153 18.3133C0.460509 16.5141 0 14.415 0 12.0161C0 9.61713 0.471218 7.51807 1.41365 5.71887C2.35609 3.91968 3.66265 2.51673 5.33333 1.51004C7.02544 0.503347 8.97457 0 11.1807 0C12.9371 0 14.5221 0.331994 15.9357 0.995983C17.3494 1.63855 18.5274 2.54886 19.4699 3.72691C20.4123 4.90495 21.0228 6.28648 21.3012 7.87149H17.9277C17.4993 6.35074 16.6747 5.16198 15.4538 4.30522C14.2329 3.44846 12.7764 3.02008 11.0843 3.02008C9.52075 3.02008 8.14993 3.39491 6.97189 4.14458C5.81526 4.87282 4.91566 5.91165 4.27309 7.26104C3.63052 8.58902 3.30924 10.1633 3.30924 11.9839C3.30924 13.7831 3.63052 15.3574 4.27309 16.7068C4.91566 18.0562 5.82597 19.1058 7.00402 19.8554C8.18206 20.5837 9.54217 20.9478 11.0843 20.9478C12.7979 20.9478 14.2758 20.5301 15.5181 19.6948C16.7818 18.838 17.6278 17.6921 18.0562 16.257H21.3976C21.0763 17.7992 20.423 19.1486 19.4378 20.3052C18.4739 21.4618 17.2637 22.3614 15.8072 23.004C14.3722 23.6466 12.7764 23.9679 11.0201 23.9679Z" fill="white"/>
<path d="M29.0248 24C27.3542 24 26.0369 23.5609 25.073 22.6827C24.1306 21.8046 23.6594 20.6586 23.6594 19.245C23.6594 17.8099 24.1734 16.664 25.2016 15.8072C26.2297 14.929 27.6647 14.415 29.5068 14.2651L34.4546 13.8795V13.4297C34.4546 12.5515 34.2939 11.8554 33.9726 11.3414C33.6514 10.8059 33.2123 10.4311 32.6554 10.2169C32.0985 9.98126 31.4666 9.86345 30.7598 9.86345C29.4961 9.86345 28.5108 10.1312 27.804 10.6667C27.1186 11.1807 26.7759 11.9197 26.7759 12.8835H24.1413C24.1413 11.7912 24.4198 10.838 24.9767 10.0241C25.5336 9.21017 26.3153 8.57831 27.322 8.12851C28.3501 7.67871 29.5389 7.45381 30.8883 7.45381C32.1949 7.45381 33.3301 7.68942 34.2939 8.16064C35.2792 8.61044 36.0396 9.30656 36.575 10.249C37.1319 11.17 37.4104 12.3373 37.4104 13.751V23.6145H34.8401L34.5188 21.0763C34.1119 21.9759 33.405 22.6934 32.3983 23.2289C31.4131 23.743 30.2886 24 29.0248 24ZM29.8923 21.6546C31.3274 21.6546 32.4519 21.2262 33.2658 20.3695C34.0797 19.4913 34.4867 18.3133 34.4867 16.8353V16L30.4706 16.3213C29.1427 16.4498 28.1788 16.7604 27.5791 17.253C27.0008 17.7456 26.7116 18.3775 26.7116 19.1486C26.7116 19.9839 26.99 20.6158 27.5469 21.0442C28.1252 21.4511 28.907 21.6546 29.8923 21.6546Z" fill="white"/>
<path d="M40.3077 19.0522H43.1993C43.1993 19.8447 43.4885 20.4766 44.0668 20.9478C44.6451 21.3976 45.4269 21.6225 46.4121 21.6225C47.4831 21.6225 48.3077 21.419 48.886 21.012C49.4644 20.5837 49.7535 20.0161 49.7535 19.3092C49.7535 18.7952 49.5929 18.3668 49.2716 18.0241C48.9717 17.6814 48.4148 17.4029 47.6009 17.1888L44.8378 16.5462C43.4456 16.2035 42.4068 15.6787 41.7214 14.9719C41.0574 14.2651 40.7254 13.3333 40.7254 12.1767C40.7254 11.2129 40.9717 10.3775 41.4644 9.67068C41.9784 8.96386 42.6745 8.41767 43.5527 8.03213C44.4523 7.64659 45.4804 7.45381 46.637 7.45381C47.7937 7.45381 48.7897 7.65729 49.625 8.06426C50.4818 8.47122 51.1457 9.03882 51.617 9.76707C52.1096 10.4953 52.3666 11.3628 52.3881 12.3695H49.4965C49.4751 11.5556 49.2073 10.9237 48.6933 10.4739C48.1792 10.0241 47.4617 9.7992 46.5407 9.7992C45.5982 9.7992 44.87 10.0027 44.3559 10.4096C43.8419 10.8166 43.5848 11.3735 43.5848 12.0803C43.5848 13.1299 44.3559 13.8474 45.8981 14.2329L48.6611 14.9076C49.9891 15.2075 50.9851 15.7001 51.6491 16.3855C52.3131 17.0495 52.6451 17.9598 52.6451 19.1165C52.6451 20.1017 52.3773 20.9692 51.8419 21.7189C51.3064 22.4471 50.5674 23.0147 49.625 23.4217C48.704 23.8072 47.6116 24 46.3479 24C44.5059 24 43.0387 23.5502 41.9463 22.6506C40.8539 21.751 40.3077 20.5515 40.3077 19.0522Z" fill="white"/>
<path d="M60.5886 24C58.9179 24 57.6006 23.5609 56.6368 22.6827C55.6944 21.8046 55.2231 20.6586 55.2231 19.245C55.2231 17.8099 55.7372 16.664 56.7653 15.8072C57.7934 14.929 59.2285 14.415 61.0705 14.2651L66.0183 13.8795V13.4297C66.0183 12.5515 65.8577 11.8554 65.5364 11.3414C65.2151 10.8059 64.776 10.4311 64.2191 10.2169C63.6622 9.98126 63.0304 9.86345 62.3235 9.86345C61.0598 9.86345 60.0745 10.1312 59.3677 10.6667C58.6823 11.1807 58.3396 11.9197 58.3396 12.8835H55.7051C55.7051 11.7912 55.9835 10.838 56.5404 10.0241C57.0973 9.21017 57.8791 8.57831 58.8858 8.12851C59.9139 7.67871 61.1027 7.45381 62.4521 7.45381C63.7586 7.45381 64.8938 7.68942 65.8577 8.16064C66.843 8.61044 67.6033 9.30656 68.1388 10.249C68.6957 11.17 68.9741 12.3373 68.9741 13.751V23.6145H66.4039L66.0826 21.0763C65.6756 21.9759 64.9688 22.6934 63.9621 23.2289C62.9768 23.743 61.8523 24 60.5886 24ZM61.4561 21.6546C62.8911 21.6546 64.0156 21.2262 64.8296 20.3695C65.6435 19.4913 66.0504 18.3133 66.0504 16.8353V16L62.0344 16.3213C60.7064 16.4498 59.7426 16.7604 59.1428 17.253C58.5645 17.7456 58.2753 18.3775 58.2753 19.1486C58.2753 19.9839 58.5538 20.6158 59.1107 21.0442C59.689 21.4511 60.4708 21.6546 61.4561 21.6546Z" fill="white"/>
<path d="M77.4618 19.4056C77.3762 19.8554 77.3012 20.241 77.2369 20.5622C77.1941 20.8835 77.1727 21.1513 77.1727 21.3655C77.1727 21.9009 77.344 22.2436 77.6867 22.3936C78.0294 22.5221 78.5649 22.6399 79.2932 22.747L79.1325 23.6145C78.49 23.5716 77.9652 23.5502 77.5582 23.5502C77.1727 23.5288 76.8086 23.5181 76.4659 23.5181C76.1232 23.4967 75.6734 23.4859 75.1165 23.4859C74.6238 23.4859 74.2062 23.4967 73.8635 23.5181C73.5207 23.5181 73.1459 23.5288 72.739 23.5502C72.3534 23.5502 71.8286 23.5716 71.1647 23.6145L71.3253 22.747C71.9893 22.6613 72.4926 22.5649 72.8353 22.4578C73.1995 22.3293 73.4886 22.1258 73.7028 21.8474C73.8742 21.6546 74.0027 21.3548 74.0883 20.9478C74.1954 20.5408 74.3133 20.0161 74.4418 19.3735L76.9157 6.68273C77.0228 6.083 77.1084 5.56894 77.1727 5.14056C77.2584 4.71218 77.3012 4.35877 77.3012 4.08032C77.3012 3.50201 77.1191 3.13788 76.755 2.98795C76.3909 2.83802 75.8554 2.72021 75.1486 2.63454L75.3092 1.76707H83.502C85.9652 1.76707 87.8179 2.20616 89.0602 3.08434C90.3025 3.9411 90.9237 5.19411 90.9237 6.84337C90.9237 8.08568 90.6345 9.18875 90.0562 10.1526C89.4779 11.1165 88.6854 11.9304 87.6787 12.5944C86.672 13.2584 85.5154 13.7617 84.2088 14.1044C82.9237 14.4471 81.5636 14.6185 80.1285 14.6185C79.6573 14.6185 79.2396 14.5971 78.8755 14.5542C78.5114 14.5114 78.158 14.4685 77.8153 14.4257L78.1044 13.1406C78.4685 13.2262 78.8541 13.3012 79.261 13.3655C79.668 13.4297 80.1071 13.4618 80.5783 13.4618C81.9705 13.4618 83.2021 13.2048 84.2731 12.6908C85.3655 12.1553 86.2115 11.4163 86.8112 10.4739C87.4324 9.51004 87.743 8.42838 87.743 7.22891C87.743 5.90094 87.3253 4.8514 86.49 4.08032C85.6546 3.30924 84.423 2.92369 82.7952 2.92369H80.6426L77.4618 19.4056Z" fill="white"/>
<path d="M90.4787 11.3735C90.9285 10.9451 91.4211 10.5274 91.9566 10.1205C92.5135 9.71352 93.0489 9.38153 93.563 9.1245C94.0985 8.84605 94.5804 8.70683 95.0088 8.70683C95.5871 8.70683 95.9298 8.98527 96.0369 9.54217C96.1654 10.0776 96.1011 10.8916 95.8441 11.9839L94.7839 16.739L94.9767 16.9639L93.6594 23.3896L91.3461 23.7751L90.9285 23.2932L93.3702 11.9197C93.4559 11.577 93.4559 11.3521 93.3702 11.245C93.2846 11.1165 93.1667 11.0522 93.0168 11.0522C92.7384 11.0522 92.4171 11.1593 92.053 11.3735C91.7103 11.5663 91.3675 11.8126 91.0248 12.1124L90.4787 11.3735ZM101.916 11.8233C100.824 12.166 99.8709 12.5837 99.057 13.0763C98.2645 13.5689 97.5148 14.2651 96.808 15.1647C96.1226 16.0428 95.3729 17.2423 94.559 18.7631L94.1734 18.3133C94.6447 17.1566 95.1587 16.0321 95.7156 14.9398C96.2725 13.826 96.8508 12.83 97.4505 11.9518C98.0717 11.0522 98.6929 10.3454 99.314 9.83132C99.9352 9.29585 100.535 9.02811 101.113 9.02811C101.477 9.02811 101.724 9.16734 101.852 9.44578C102.002 9.70281 102.066 10.0455 102.045 10.4739C102.045 10.8809 102.002 11.3307 101.916 11.8233Z" fill="white"/>
<path d="M107.058 23.9357C105.494 23.9357 104.241 23.4324 103.299 22.4257C102.356 21.419 101.885 20.0268 101.885 18.249C101.885 16.9853 102.089 15.7858 102.495 14.6506C102.924 13.494 103.513 12.4766 104.263 11.5984C105.012 10.6988 105.88 9.99197 106.865 9.47791C107.85 8.96385 108.91 8.70683 110.046 8.70683C111.652 8.70683 112.916 9.21017 113.837 10.2169C114.779 11.2021 115.25 12.5944 115.25 14.3936C115.25 15.6359 115.036 16.8353 114.608 17.992C114.201 19.1272 113.623 20.1446 112.873 21.0442C112.123 21.9438 111.256 22.6506 110.271 23.1647C109.285 23.6787 108.214 23.9357 107.058 23.9357ZM107.54 22.8434C108.311 22.8434 108.996 22.5756 109.596 22.0402C110.196 21.5047 110.688 20.7979 111.074 19.9197C111.481 19.0415 111.781 18.0991 111.973 17.0924C112.188 16.0643 112.295 15.0683 112.295 14.1044C112.295 13.2262 112.188 12.4659 111.973 11.8233C111.759 11.1807 111.449 10.6881 111.042 10.3454C110.656 9.98126 110.174 9.7992 109.596 9.7992C108.825 9.7992 108.139 10.0776 107.54 10.6345C106.94 11.17 106.447 11.8768 106.062 12.755C105.676 13.6332 105.376 14.5863 105.162 15.6145C104.969 16.6212 104.873 17.5957 104.873 18.5382C104.873 19.4163 104.969 20.1767 105.162 20.8193C105.376 21.4618 105.676 21.9652 106.062 22.3293C106.469 22.672 106.961 22.8434 107.54 22.8434Z" fill="white"/>
<path d="M131.542 21.2369C131.071 21.7082 130.557 22.1473 130 22.5542C129.464 22.9612 128.929 23.2932 128.393 23.5502C127.879 23.8072 127.397 23.9357 126.948 23.9357C126.541 23.9357 126.251 23.8072 126.08 23.5502C125.909 23.2932 125.823 22.9612 125.823 22.5542C125.844 22.1258 125.877 21.676 125.919 21.2048C125.984 20.7979 126.048 20.3802 126.112 19.9518C126.198 19.5234 126.305 19.0308 126.433 18.4739C126.562 17.917 126.712 17.253 126.883 16.4819L127.14 16.8353C126.562 18.1419 125.877 19.3414 125.084 20.4337C124.313 21.5047 123.488 22.3614 122.61 23.004C121.753 23.6252 120.886 23.9357 120.008 23.9357C118.894 23.9357 118.091 23.5181 117.598 22.6827C117.105 21.826 116.859 20.7871 116.859 19.5663C116.859 18.2169 117.105 16.8996 117.598 15.6145C118.112 14.3079 118.798 13.1406 119.654 12.1124C120.533 11.0629 121.529 10.2383 122.642 9.63855C123.778 9.0174 124.977 8.70683 126.241 8.70683C126.819 8.70683 127.376 8.77108 127.911 8.8996C128.468 9.02811 129.014 9.25301 129.55 9.5743L128.94 11.0201C128.49 10.5917 127.986 10.2704 127.429 10.0562C126.873 9.84203 126.359 9.73494 125.887 9.73494C125.031 9.73494 124.238 10.0027 123.51 10.5382C122.782 11.0736 122.139 11.7912 121.582 12.6908C121.047 13.5689 120.618 14.5435 120.297 15.6145C119.997 16.6854 119.847 17.7456 119.847 18.7952C119.847 19.2236 119.89 19.6734 119.976 20.1446C120.061 20.6158 120.222 21.0228 120.458 21.3655C120.693 21.6867 121.014 21.8474 121.421 21.8474C121.893 21.8474 122.407 21.6011 122.964 21.1084C123.542 20.6158 124.11 19.9946 124.666 19.245C125.223 18.4953 125.716 17.7135 126.144 16.8996C126.594 16.0857 126.926 15.3467 127.14 14.6827L129.229 3.53414C129.336 3.08434 129.325 2.76305 129.197 2.57028C129.089 2.37751 128.843 2.25971 128.458 2.21687C128.093 2.17403 127.579 2.1419 126.915 2.12048L126.948 1.25301L132.217 0.481927L132.57 0.83534L128.682 20.6908C128.64 20.9692 128.629 21.1941 128.65 21.3655C128.693 21.5154 128.832 21.5904 129.068 21.5904C129.325 21.5904 129.614 21.494 129.935 21.3012C130.278 21.087 130.642 20.83 131.028 20.5301L131.542 21.2369Z" fill="white"/>
<path d="M139.718 8.70683C140.489 8.70683 141.207 8.80321 141.871 8.99598C142.535 9.18875 143.199 9.44578 143.863 9.76707L142.77 13.4297H142.064L141.325 9.38153L142.192 10.5382C141.635 10.2597 141.132 10.0562 140.682 9.92771C140.254 9.77778 139.815 9.70281 139.365 9.70281C138.572 9.70281 137.951 9.917 137.501 10.3454C137.073 10.7738 136.859 11.3092 136.859 11.9518C136.859 12.7015 137.137 13.3226 137.694 13.8153C138.251 14.3079 138.872 14.8112 139.557 15.3253C140.05 15.6894 140.521 16.075 140.971 16.4819C141.421 16.8889 141.785 17.3494 142.064 17.8635C142.342 18.3561 142.481 18.9558 142.481 19.6626C142.481 20.498 142.235 21.2369 141.742 21.8795C141.271 22.5221 140.586 23.0254 139.686 23.3896C138.808 23.7537 137.769 23.9357 136.57 23.9357C135.841 23.9357 135.092 23.8501 134.321 23.6787C133.549 23.5288 132.853 23.3039 132.232 23.004L133.26 19.0201H133.967L134.545 23.1325L134.128 22.2008C134.663 22.4578 135.156 22.6399 135.606 22.747C136.055 22.8541 136.495 22.9076 136.923 22.9076C137.823 22.9076 138.551 22.7041 139.108 22.2972C139.665 21.8688 139.943 21.3012 139.943 20.5944C139.943 20.0803 139.804 19.6305 139.525 19.245C139.268 18.838 138.926 18.4632 138.497 18.1205C138.069 17.7564 137.619 17.4029 137.148 17.0602C136.441 16.5248 135.798 15.9465 135.22 15.3253C134.663 14.6827 134.385 13.8902 134.385 12.9478C134.385 12.1553 134.599 11.4378 135.027 10.7952C135.477 10.1526 136.109 9.64926 136.923 9.28514C137.737 8.8996 138.669 8.70683 139.718 8.70683Z" fill="white"/>
</g>
<defs>
<clipPath id="clip0_1_16">
<rect width="144" height="24" fill="white"/>
</clipPath>
</defs>
</svg>
